<svg width="97" height="80" viewBox="0 0 97 80" fill="none" xmlns="http://www.w3.org/2000/svg">
<g clip-path="url(#clip0_1527_1466)">
<path d="M36.4206 15.5959V0.078125H39.4905C44.1363 0.078125 47.8915 4.20032 47.8851 9.26012V9.26021V19.0075C47.8851 24.056 44.0795 27.8647 39.4295 27.8647L23.7574 27.7835H23.7554C20.0776 27.8652 16.3357 29.7844 14.4316 32.8554C13.241 34.6609 12.4699 37.3368 12.4699 39.7205C12.4699 42.0966 12.9131 44.694 14.1067 46.5043C15.0554 48.0361 16.5514 49.4249 18.2655 50.431C19.98 51.4372 21.9181 52.0637 23.7526 52.0637H31.6317H39.592C41.9187 52.0637 43.9915 52.8548 45.4821 54.2738C46.9721 55.6923 47.8851 57.7426 47.8851 60.271V64.1732H23.2164C10.8293 64.1732 0.759642 53.4956 0.52264 40.0984C0.279307 26.2814 10.94 15.6738 23.6706 15.6738H36.3428H36.4206V15.5959Z" fill="url(#paint0_linear_1527_1466)" stroke="url(#paint1_linear_1527_1466)"/>
<path d="M10.2081 30.5162C11.255 21.3906 17.0524 16.8366 21.8889 15.5957C16.2816 16.0139 11.2679 17.884 7.42046 21.8787C2.98857 26.4798 0.239501 32.9143 0.367962 40.0181C0.49 47.0802 3.34825 53.4172 7.83154 57.8371C13.0535 55.1601 15.7156 48.4116 15.7156 48.4116C15.7156 48.4116 8.8785 42.1096 10.2081 30.5162Z" fill="#0050B2"/>
<path d="M47.9112 64.2644V60.1653C47.9112 55.0691 44.0416 51.904 39.3527 51.904H23.5946C21.2759 51.904 18.8022 50.6856 17.0153 49.4671C17.0153 49.4671 7.91496 43.2388 8.5958 28.7521C8.88485 22.6034 12.3257 19.1541 16.1218 16.6514C7.1055 19.0881 0.168775 28.9334 0.367889 40.0179C0.605542 53.4518 10.709 64.2644 23.144 64.2644H47.9112Z" fill="url(#paint2_linear_1527_1466)"/>
<path d="M22.2138 62.6264C8.40516 60.5957 1.33838 48.3304 1.33838 38.9079C1.22918 32.8567 4.06723 26.3697 7.40078 22.0127C2.98816 26.5999 0.24552 33.0275 0.367558 40.1243C0.60521 53.5582 10.7087 64.3708 23.1437 64.3708L47.9629 64.2508C47.9629 64.2508 36.0225 64.0072 22.2138 62.6264Z" fill="#FB885B"/>
<path d="M60.8047 64.2892V79.807H57.7348C53.0891 79.807 49.3339 75.6848 49.3403 70.6251V70.6249V60.8777C49.3403 55.8291 53.1459 52.0204 57.7958 52.0204L73.4679 52.1016H73.4699C77.1478 52.0199 80.8897 50.1007 82.7937 47.0297C83.9843 45.2243 84.7554 42.5483 84.7554 40.1647C84.7554 37.7885 84.3123 35.1911 83.1186 33.381C82.17 31.849 80.674 30.4602 78.9599 29.4542C77.2453 28.4479 75.3073 27.8215 73.4727 27.8215H65.5937H57.6334C55.3067 27.8215 53.2338 27.0305 51.7432 25.6114C50.2533 24.1928 49.3403 22.1426 49.3403 19.6142V15.7119H74.0089C86.396 15.7119 96.4657 26.3896 96.7028 39.7868C96.946 53.6037 86.2853 64.2114 73.5548 64.2114H60.8825H60.8047V64.2892Z" fill="url(#paint3_linear_1527_1466)" stroke="url(#paint4_linear_1527_1466)"/>
<path d="M87.0174 49.3688C85.9704 58.4944 80.173 63.0483 75.3364 64.2893C80.9437 63.871 85.9574 62.001 89.8049 58.0065C94.2368 53.4052 96.9859 46.9707 96.8574 39.8668C96.7353 32.8047 93.8771 26.4678 89.3939 22.0479C84.1719 24.7249 81.5098 31.4734 81.5098 31.4734C81.5098 31.4734 88.3469 37.7753 87.0174 49.3688Z" fill="#0050B2"/>
<path d="M49.3141 15.6201V19.7194C49.3141 24.8154 53.1837 27.9806 57.8726 27.9806H73.6307C75.9495 27.9806 78.4231 29.199 80.21 30.4175C80.21 30.4175 89.3104 36.646 88.6295 51.1325C88.3404 57.2813 84.8997 60.7305 81.1036 63.2334C90.1199 60.7965 97.0566 50.9512 96.8575 39.8667C96.6198 26.4327 86.5163 15.6201 74.0813 15.6201H49.3141Z" fill="url(#paint5_linear_1527_1466)"/>
<path d="M75.0116 17.2591C88.8201 19.2898 95.8869 31.5552 95.8869 40.9776C95.9962 47.0288 93.158 53.5158 89.8245 57.8728C94.2372 53.2856 96.9798 46.858 96.8578 39.7612C96.6201 26.3273 86.5166 15.5146 74.0816 15.5146L49.2625 15.6347C49.2625 15.6347 61.2028 15.8783 75.0116 17.2591Z" fill="#FB885B"/>
<path d="M60.105 41.2608C60.804 41.9598 61.9373 41.9598 62.6363 41.2608C63.3353 40.5618 63.3353 39.4285 62.6363 38.7295C61.9373 38.0305 60.804 38.0305 60.105 38.7295C59.406 39.4285 59.406 40.5618 60.105 41.2608Z" fill="#0085FF" stroke="#78CBFF"/>
<path d="M69.4344 41.2608C70.1334 41.9598 71.2667 41.9598 71.9656 41.2608C72.6646 40.5618 72.6646 39.4285 71.9657 38.7295C71.2667 38.0305 70.1334 38.0305 69.4344 38.7295C68.7354 39.4285 68.7354 40.5618 69.4344 41.2608Z" fill="#0085FF" stroke="#78CBFF"/>
<path d="M64.7743 36.5918C65.4733 37.2908 66.6066 37.2908 67.3056 36.5918C68.0045 35.8928 68.0045 34.7596 67.3056 34.0606C66.6066 33.3616 65.4733 33.3616 64.7743 34.0606C64.0753 34.7596 64.0753 35.8928 64.7743 36.5918Z" fill="#0085FF" stroke="#78CBFF"/>
<path d="M64.7743 45.9209C65.4733 46.6199 66.6066 46.6199 67.3056 45.9209C68.0045 45.2219 68.0045 44.0887 67.3056 43.3897C66.6066 42.6907 65.4733 42.6907 64.7743 43.3897C64.0753 44.0887 64.0753 45.2219 64.7743 45.9209Z" fill="#0085FF" stroke="#78CBFF"/>
<path d="M32.3671 35.0874C32.3671 34.1902 31.6398 33.4629 30.7426 33.4629C29.8454 33.4629 29.118 34.1902 29.118 35.0874V44.8347C29.118 45.7319 29.8454 46.4593 30.7426 46.4593C31.6398 46.4593 32.3671 45.7319 32.3671 44.8347V35.0874Z" fill="#FB885B"/>
<path d="M35.6163 41.586C36.5135 41.586 37.2408 40.8587 37.2408 39.9615C37.2408 39.0642 36.5135 38.3369 35.6163 38.3369H25.869C24.9718 38.3369 24.2445 39.0642 24.2445 39.9615C24.2445 40.8587 24.9718 41.586 25.869 41.586H35.6163Z" fill="#FB885B"/>
</g>
<defs>
<linearGradient id="paint0_linear_1527_1466" x1="17.8901" y1="54.0613" x2="56.8885" y2="16.7872" gradientUnits="userSpaceOnUse">
<stop stop-color="#0069E8"/>
<stop offset="1" stop-color="#3C94FF"/>
</linearGradient>
<linearGradient id="paint1_linear_1527_1466" x1="46.3383" y1="3.81799" x2="9.94846" y2="42.8072" gradientUnits="userSpaceOnUse">
<stop stop-color="#78CBFF"/>
<stop offset="1" stop-color="#78CBFF" stop-opacity="0"/>
</linearGradient>
<linearGradient id="paint2_linear_1527_1466" x1="3.92972" y1="25.2953" x2="45.8312" y2="63.3334" gradientUnits="userSpaceOnUse">
<stop stop-color="#0058C3"/>
<stop offset="1" stop-color="#00A3FF"/>
</linearGradient>
<linearGradient id="paint3_linear_1527_1466" x1="79.3353" y1="25.8238" x2="40.3369" y2="63.0979" gradientUnits="userSpaceOnUse">
<stop stop-color="#0069E8"/>
<stop offset="1" stop-color="#3C94FF"/>
</linearGradient>
<linearGradient id="paint4_linear_1527_1466" x1="51.212" y1="76.9219" x2="94.7498" y2="34.6837" gradientUnits="userSpaceOnUse">
<stop stop-color="#78CBFF"/>
<stop offset="1" stop-color="#78CBFF" stop-opacity="0"/>
</linearGradient>
<linearGradient id="paint5_linear_1527_1466" x1="93.2956" y1="54.5895" x2="51.3942" y2="16.5512" gradientUnits="userSpaceOnUse">
<stop stop-color="#0058C3"/>
<stop offset="1" stop-color="#00A3FF"/>
</linearGradient>
<clipPath id="clip0_1527_1466">
<rect width="96.4981" height="80" fill="white" transform="translate(0.363647)"/>
</clipPath>
</defs>
</svg>
