<svg width="182" height="52" viewBox="0 0 182 52" fill="none" xmlns="http://www.w3.org/2000/svg">
<path d="M180.989 46.0034C180.989 48.7745 178.672 51.0192 175.806 51.0192H6.20069C3.33628 51.0192 1.01123 48.7745 1.01123 46.0034V6.00381C1.01123 3.23398 3.33628 0.981445 6.20069 0.981445H175.805C178.672 0.981445 180.988 3.23398 180.988 6.00381L180.989 46.0034Z" fill="black"/>
<path d="M175.259 1.04162C178.38 1.04162 180.92 3.4905 180.92 6.5V45.5C180.92 48.5095 178.38 50.9584 175.259 50.9584H6.74074C3.61978 50.9584 1.0802 48.5095 1.0802 45.5V6.5C1.0802 3.4905 3.61978 1.04162 6.74074 1.04162H175.259ZM175.259 2.74817e-06H6.74074C3.03502 2.74817e-06 0 2.92663 0 6.5V45.5C0 49.0734 3.03502 52 6.74074 52H175.259C178.965 52 182 49.0734 182 45.5V6.5C182 2.92663 178.965 2.74817e-06 175.259 2.74817e-06Z" fill="#A6A6A6"/>
<path d="M40.6167 25.7191C40.5776 21.5292 44.1745 19.4908 44.339 19.3959C42.3019 16.532 39.1446 16.1407 38.035 16.1095C35.3832 15.8404 32.811 17.6396 31.4601 17.6396C30.0823 17.6396 28.0021 16.1355 25.7601 16.1797C22.8751 16.2226 20.1761 17.8333 18.6959 20.3345C15.6409 25.4344 17.9193 32.9289 20.8462 37.0512C22.3102 39.0701 24.021 41.3243 26.2603 41.245C28.4511 41.1579 29.2694 39.8982 31.9131 39.8982C34.5326 39.8982 35.301 41.245 37.5848 41.1943C39.9359 41.1579 41.4162 39.1663 42.8291 37.1292C44.521 34.8152 45.2004 32.5363 45.2274 32.4193C45.1721 32.4011 40.6612 30.741 40.6167 25.7191Z" fill="white"/>
<path d="M36.3027 13.3977C37.4809 11.9768 38.2871 10.0437 38.0634 8.08203C36.3579 8.15483 34.2252 9.21953 32.997 10.6092C31.9104 11.8338 30.9397 13.841 31.1905 15.7286C33.1062 15.8664 35.0732 14.7965 36.3027 13.3977Z" fill="white"/>
<path d="M72.3217 40.9552H69.2601L67.583 35.8735H61.7536L60.156 40.9552H57.1753L62.9508 23.6548H66.518L72.3217 40.9552ZM67.0774 33.7415L65.5608 29.224C65.4003 28.7625 65.0997 27.6757 64.6562 25.9649H64.6022C64.4256 26.7007 64.1412 27.7875 63.7502 29.224L62.2605 33.7415H67.0774Z" fill="white"/>
<path d="M87.1741 34.5647C87.1741 36.6863 86.5795 38.3633 85.3905 39.5944C84.3254 40.6903 83.0029 41.2376 81.4242 41.2376C79.7201 41.2376 78.496 40.6474 77.7505 39.467H77.6966V46.0385H74.8223V32.5874C74.8223 31.2536 74.7859 29.8847 74.7158 28.4807H77.2436L77.404 30.458H77.458C78.4165 28.9682 79.8711 28.2246 81.8233 28.2246C83.3494 28.2246 84.6234 28.8057 85.6426 29.9692C86.6645 31.134 87.1741 32.6654 87.1741 34.5647ZM84.2459 34.6661C84.2459 33.4519 83.9628 32.4509 83.3939 31.6631C82.7724 30.8415 81.9378 30.4307 80.8917 30.4307C80.1826 30.4307 79.5381 30.6595 78.9625 31.1106C78.3855 31.5656 78.008 32.1597 77.8314 32.8955C77.7424 33.2387 77.6979 33.5195 77.6979 33.7405V35.8205C77.6979 36.7279 77.9864 37.4936 78.5634 38.1189C79.1404 38.7442 79.89 39.0562 80.8121 39.0562C81.8947 39.0562 82.7373 38.6532 83.3399 37.8498C83.9439 37.0451 84.2459 35.9843 84.2459 34.6661Z" fill="white"/>
<path d="M102.054 34.5647C102.054 36.6863 101.459 38.3633 100.269 39.5944C99.2049 40.6903 97.8824 41.2376 96.3037 41.2376C94.5997 41.2376 93.3755 40.6474 92.6314 39.467H92.5774V46.0385H89.7032V32.5874C89.7032 31.2536 89.6668 29.8847 89.5967 28.4807H92.1245L92.2849 30.458H92.3388C93.296 28.9682 94.7507 28.2246 96.7041 28.2246C98.2289 28.2246 99.5029 28.8057 100.525 29.9692C101.543 31.134 102.054 32.6654 102.054 34.5647ZM99.1254 34.6661C99.1254 33.4519 98.8409 32.4509 98.272 31.6631C97.6505 30.8415 96.8187 30.4307 95.7712 30.4307C95.0607 30.4307 94.4177 30.6595 93.8407 31.1106C93.2636 31.5656 92.8875 32.1597 92.7109 32.8955C92.6233 33.2387 92.5774 33.5195 92.5774 33.7405V35.8205C92.5774 36.7279 92.8659 37.4936 93.4402 38.1189C94.0173 38.7429 94.7668 39.0562 95.6917 39.0562C96.7742 39.0562 97.6168 38.6532 98.2194 37.8498C98.8234 37.0451 99.1254 35.9843 99.1254 34.6661Z" fill="white"/>
<path d="M118.689 36.1032C118.689 37.5748 118.16 38.7721 117.096 39.6964C115.927 40.7065 114.3 41.2109 112.209 41.2109C110.278 41.2109 108.731 40.8521 107.559 40.1332L108.225 37.8231C109.487 38.5589 110.871 38.9281 112.38 38.9281C113.463 38.9281 114.305 38.6915 114.911 38.2209C115.513 37.7503 115.814 37.1185 115.814 36.3307C115.814 35.6287 115.566 35.0372 115.068 34.5575C114.573 34.0778 113.747 33.6319 112.593 33.2198C109.452 32.0901 107.883 30.4352 107.883 28.259C107.883 26.8368 108.433 25.6707 109.534 24.7633C110.632 23.8546 112.096 23.4009 113.926 23.4009C115.559 23.4009 116.915 23.6752 117.998 24.2225L117.279 26.4819C116.268 25.9515 115.125 25.6863 113.845 25.6863C112.834 25.6863 112.044 25.9268 111.478 26.4052C111 26.8329 110.76 27.3542 110.76 27.9717C110.76 28.6555 111.033 29.221 111.583 29.6656C112.062 30.0764 112.931 30.521 114.193 31.0007C115.737 31.6 116.871 32.3007 117.6 33.1041C118.327 33.9049 118.689 34.9072 118.689 36.1032Z" fill="white"/>
<path d="M128.193 30.5599H125.025V36.6166C125.025 38.1571 125.583 38.9267 126.702 38.9267C127.216 38.9267 127.642 38.8838 127.979 38.798L128.058 40.9027C127.492 41.1068 126.746 41.2095 125.823 41.2095C124.688 41.2095 123.801 40.8754 123.16 40.2085C122.523 39.5403 122.202 38.4197 122.202 36.8454V30.5573H120.314V28.4773H122.202V26.1932L125.025 25.3716V28.4773H128.193V30.5599Z" fill="white"/>
<path d="M142.487 34.6151C142.487 36.5326 141.918 38.1069 140.783 39.338C139.593 40.6055 138.013 41.2373 136.043 41.2373C134.145 41.2373 132.634 40.6302 131.506 39.416C130.379 38.2018 129.816 36.6691 129.816 34.8218C129.816 32.8887 130.396 31.3053 131.559 30.0742C132.72 28.8418 134.286 28.2256 136.256 28.2256C138.154 28.2256 139.682 28.8327 140.834 30.0482C141.937 31.2273 142.487 32.7496 142.487 34.6151ZM139.505 34.7048C139.505 33.5543 139.25 32.5676 138.734 31.7447C138.131 30.7489 137.27 30.2523 136.154 30.2523C134.998 30.2523 134.121 30.7502 133.518 31.7447C133.002 32.5689 132.747 33.5712 132.747 34.7568C132.747 35.9073 133.002 36.894 133.518 37.7156C134.139 38.7114 135.008 39.208 136.128 39.208C137.225 39.208 138.087 38.701 138.708 37.6896C139.238 36.8511 139.505 35.854 139.505 34.7048Z" fill="white"/>
<path d="M151.83 30.9182C151.546 30.8675 151.242 30.8415 150.924 30.8415C149.913 30.8415 149.131 31.2094 148.581 31.9465C148.102 32.5965 147.862 33.4181 147.862 34.41V40.9555H144.99L145.017 32.4093C145.017 30.9715 144.98 29.6624 144.909 28.482H147.412L147.517 30.8688H147.597C147.9 30.0485 148.379 29.3881 149.034 28.8928C149.674 28.4469 150.366 28.2246 151.112 28.2246C151.377 28.2246 151.617 28.2428 151.83 28.2753V30.9182Z" fill="white"/>
<path d="M164.684 34.1274C164.684 34.624 164.651 35.0426 164.579 35.3845H155.957C155.99 36.6169 156.407 37.5594 157.208 38.2094C157.934 38.7905 158.874 39.0817 160.028 39.0817C161.305 39.0817 162.469 38.8854 163.517 38.4915L163.967 40.4155C162.743 40.9303 161.298 41.1864 159.63 41.1864C157.624 41.1864 156.05 40.617 154.904 39.4795C153.76 38.342 153.188 36.8145 153.188 34.8983C153.188 33.0172 153.72 31.4507 154.786 30.2014C155.903 28.8676 157.411 28.2007 159.309 28.2007C161.174 28.2007 162.585 28.8676 163.544 30.2014C164.303 31.2609 164.684 32.5713 164.684 34.1274ZM161.944 33.4085C161.963 32.5869 161.775 31.8771 161.386 31.2778C160.888 30.5069 160.124 30.1221 159.095 30.1221C158.155 30.1221 157.391 30.4978 156.807 31.2518C156.329 31.8511 156.044 32.57 155.957 33.4072H161.944V33.4085Z" fill="white"/>
<path d="M66.1268 13.0118C66.1268 14.5419 65.6509 15.6937 64.7005 16.4672C63.8201 17.1809 62.569 17.5384 60.9486 17.5384C60.1451 17.5384 59.4575 17.5046 58.8818 17.437V9.0767C59.6328 8.9597 60.4416 8.8999 61.3152 8.8999C62.8589 8.8999 64.0223 9.2236 64.807 9.871C65.6859 10.6029 66.1268 11.6494 66.1268 13.0118ZM64.6371 13.0495C64.6371 12.0576 64.3648 11.2971 63.8201 10.7667C63.2755 10.2376 62.48 9.9724 61.4325 9.9724C60.9876 9.9724 60.6088 10.001 60.2947 10.0608V16.4165C60.4686 16.4425 60.7868 16.4542 61.2492 16.4542C62.3304 16.4542 63.1649 16.1643 63.7527 15.5845C64.3405 15.0047 64.6371 14.1597 64.6371 13.0495Z" fill="white"/>
<path d="M74.0252 14.3482C74.0252 15.2907 73.7461 16.0629 73.188 16.6687C72.6029 17.2914 71.8277 17.6021 70.8597 17.6021C69.9268 17.6021 69.184 17.3044 68.6299 16.7064C68.0772 16.1097 67.8008 15.357 67.8008 14.4496C67.8008 13.5006 68.0852 12.7219 68.6569 12.1174C69.2285 11.5129 69.9969 11.21 70.9649 11.21C71.8978 11.21 72.6474 11.5077 73.2149 12.1044C73.7542 12.6842 74.0252 13.433 74.0252 14.3482ZM72.5597 14.3924C72.5597 13.8269 72.433 13.342 72.1809 12.9377C71.8843 12.4489 71.4624 12.2045 70.9137 12.2045C70.3461 12.2045 69.9147 12.4489 69.6181 12.9377C69.3646 13.342 69.2393 13.8347 69.2393 14.4171C69.2393 14.9826 69.366 15.4675 69.6181 15.8718C69.9241 16.3606 70.3501 16.605 70.9002 16.605C71.4394 16.605 71.8628 16.3567 72.1674 15.8588C72.429 15.4467 72.5597 14.9579 72.5597 14.3924Z" fill="white"/>
<path d="M84.6165 11.3354L82.628 17.4636H81.3338L80.5101 14.8025C80.3011 14.1382 80.1312 13.4778 79.9991 12.8226H79.9735C79.8508 13.496 79.681 14.1551 79.4626 14.8025L78.5876 17.4636H77.2786L75.4087 11.3354H76.8606L77.5792 14.2487C77.7531 14.9377 77.896 15.5942 78.0106 16.2156H78.0362C78.1414 15.7034 78.3153 15.0508 78.5607 14.2617L79.4626 11.3367H80.6139L81.478 14.1993C81.687 14.8974 81.8569 15.5695 81.9876 16.2169H82.0267C82.1225 15.5864 82.2667 14.9143 82.4582 14.1993L83.2293 11.3367H84.6165V11.3354Z" fill="white"/>
<path d="M91.9411 17.4625H90.5283V13.9525C90.5283 12.8709 90.1023 12.3301 89.2475 12.3301C88.8283 12.3301 88.4899 12.4783 88.227 12.776C87.9668 13.0737 87.8347 13.4247 87.8347 13.8264V17.4612H86.4218V13.0854C86.4218 12.5472 86.4043 11.9635 86.3706 11.3317H87.6122L87.6783 12.2898H87.7174C87.8819 11.9921 88.1272 11.7464 88.4494 11.5501C88.8323 11.3213 89.261 11.2056 89.7302 11.2056C90.3234 11.2056 90.8168 11.3902 91.2091 11.7607C91.6971 12.2144 91.9411 12.8917 91.9411 13.7913V17.4625Z" fill="white"/>
<path d="M95.8373 17.463H94.4258V8.52295H95.8373V17.463Z" fill="white"/>
<path d="M104.156 14.3482C104.156 15.2907 103.876 16.0629 103.318 16.6687C102.733 17.2914 101.957 17.6021 100.99 17.6021C100.056 17.6021 99.313 17.3044 98.7603 16.7064C98.2075 16.1097 97.9312 15.357 97.9312 14.4496C97.9312 13.5006 98.2156 12.7219 98.7872 12.1174C99.3588 11.5129 100.127 11.21 101.094 11.21C102.028 11.21 102.776 11.5077 103.345 12.1044C103.885 12.6842 104.156 13.433 104.156 14.3482ZM102.689 14.3924C102.689 13.8269 102.562 13.342 102.31 12.9377C102.015 12.4489 101.591 12.2045 101.044 12.2045C100.475 12.2045 100.044 12.4489 99.7485 12.9377C99.495 13.342 99.3696 13.8347 99.3696 14.4171C99.3696 14.9826 99.4964 15.4675 99.7485 15.8718C100.054 16.3606 100.481 16.605 101.031 16.605C101.57 16.605 101.992 16.3567 102.296 15.8588C102.559 15.4467 102.689 14.9579 102.689 14.3924Z" fill="white"/>
<path d="M110.993 17.463H109.725L109.619 16.7571H109.58C109.146 17.32 108.527 17.6021 107.724 17.6021C107.124 17.6021 106.639 17.4162 106.273 17.047C105.942 16.7116 105.776 16.2943 105.776 15.799C105.776 15.0502 106.099 14.4795 106.751 14.0843C107.4 13.6891 108.314 13.4954 109.491 13.5045V13.3901C109.491 12.5828 109.052 12.1798 108.172 12.1798C107.545 12.1798 106.992 12.3319 106.515 12.6335L106.228 11.7391C106.818 11.3868 107.547 11.21 108.407 11.21C110.068 11.21 110.902 12.055 110.902 13.745V16.0018C110.902 16.6141 110.933 17.1016 110.993 17.463ZM109.526 15.357V14.4119C107.968 14.3859 107.189 14.798 107.189 15.6469C107.189 15.9667 107.278 16.2059 107.46 16.3658C107.642 16.5257 107.874 16.605 108.15 16.605C108.46 16.605 108.75 16.5101 109.014 16.3216C109.28 16.1318 109.443 15.8913 109.504 15.5962C109.518 15.5299 109.526 15.4493 109.526 15.357Z" fill="white"/>
<path d="M119.021 17.463H117.767L117.701 16.4789H117.662C117.262 17.2277 116.58 17.6021 115.621 17.6021C114.855 17.6021 114.218 17.3123 113.712 16.7324C113.207 16.1526 112.955 15.3999 112.955 14.4756C112.955 13.4837 113.228 12.6803 113.778 12.0667C114.311 11.4947 114.963 11.2087 115.74 11.2087C116.593 11.2087 117.19 11.4856 117.53 12.0407H117.557V8.52295H118.971V15.812C118.971 16.4087 118.988 16.9586 119.021 17.463ZM117.557 14.8786V13.8568C117.557 13.68 117.544 13.537 117.518 13.4278C117.439 13.1002 117.267 12.8246 117.007 12.6023C116.744 12.38 116.427 12.2682 116.062 12.2682C115.535 12.2682 115.122 12.4697 114.819 12.874C114.518 13.2783 114.366 13.7944 114.366 14.4249C114.366 15.0307 114.51 15.5221 114.8 15.9004C115.106 16.3034 115.519 16.5049 116.035 16.5049C116.499 16.5049 116.87 16.3372 117.151 16.0005C117.424 15.6898 117.557 15.3154 117.557 14.8786Z" fill="white"/>
<path d="M131.105 14.3482C131.105 15.2907 130.826 16.0629 130.268 16.6687C129.683 17.2914 128.909 17.6021 127.94 17.6021C127.008 17.6021 126.265 17.3044 125.71 16.7064C125.157 16.1097 124.881 15.357 124.881 14.4496C124.881 13.5006 125.165 12.7219 125.737 12.1174C126.309 11.5129 127.077 11.21 128.046 11.21C128.978 11.21 129.729 11.5077 130.295 12.1044C130.834 12.6842 131.105 13.433 131.105 14.3482ZM129.641 14.3924C129.641 13.8269 129.514 13.342 129.262 12.9377C128.964 12.4489 128.544 12.2045 127.994 12.2045C127.428 12.2045 126.996 12.4489 126.698 12.9377C126.445 13.342 126.319 13.8347 126.319 14.4171C126.319 14.9826 126.446 15.4675 126.698 15.8718C127.004 16.3606 127.43 16.605 127.98 16.605C128.52 16.605 128.944 16.3567 129.249 15.8588C129.509 15.4467 129.641 14.9579 129.641 14.3924Z" fill="white"/>
<path d="M138.702 17.4625H137.29V13.9525C137.29 12.8709 136.864 12.3301 136.008 12.3301C135.589 12.3301 135.25 12.4783 134.989 12.776C134.727 13.0737 134.596 13.4247 134.596 13.8264V17.4612H133.182V13.0854C133.182 12.5472 133.166 11.9635 133.132 11.3317H134.373L134.439 12.2898H134.478C134.644 11.9921 134.889 11.7464 135.21 11.5501C135.594 11.3213 136.021 11.2056 136.492 11.2056C137.084 11.2056 137.577 11.3902 137.969 11.7607C138.459 12.2144 138.702 12.8917 138.702 13.7913V17.4625Z" fill="white"/>
<path d="M148.21 12.3553H146.654V15.3323C146.654 16.0889 146.93 16.4672 147.478 16.4672C147.731 16.4672 147.942 16.4464 148.107 16.4035L148.144 17.437C147.865 17.5384 147.498 17.5891 147.046 17.5891C146.488 17.5891 146.054 17.4253 145.74 17.0977C145.425 16.7701 145.268 16.2189 145.268 15.4454V12.3553H144.339V11.3348H145.268V10.2116L146.653 9.80859V11.3335H148.209V12.3553H148.21Z" fill="white"/>
<path d="M155.689 17.463H154.275V13.979C154.275 12.8805 153.849 12.3306 152.996 12.3306C152.34 12.3306 151.893 12.6491 151.648 13.2861C151.606 13.42 151.581 13.5838 151.581 13.7762V17.4618H150.17V8.52295H151.581V12.2162H151.608C152.053 11.5441 152.691 11.2087 153.517 11.2087C154.102 11.2087 154.586 11.3933 154.971 11.7638C155.449 12.2253 155.689 12.9117 155.689 13.8191V17.463Z" fill="white"/>
<path d="M163.405 14.1085C163.405 14.3529 163.386 14.5583 163.352 14.726H159.115C159.134 15.3318 159.336 15.7933 159.729 16.1131C160.087 16.3991 160.55 16.5421 161.116 16.5421C161.743 16.5421 162.314 16.4459 162.829 16.2522L163.05 17.1986C162.448 17.4508 161.739 17.5769 160.918 17.5769C159.933 17.5769 159.158 17.2974 158.597 16.7384C158.034 16.1794 157.755 15.4293 157.755 14.4881C157.755 13.5638 158.015 12.7942 158.54 12.1806C159.087 11.5254 159.827 11.1978 160.761 11.1978C161.675 11.1978 162.37 11.5254 162.839 12.1806C163.218 12.7006 163.405 13.3441 163.405 14.1085ZM162.057 13.7562C162.068 13.3519 161.975 13.0035 161.783 12.7097C161.538 12.3314 161.164 12.1416 160.659 12.1416C160.198 12.1416 159.822 12.3262 159.534 12.6967C159.3 12.9918 159.161 13.3441 159.115 13.7562H162.057Z" fill="white"/>
</svg>
