<svg width="182" height="52" viewBox="0 0 182 52" fill="none" xmlns="http://www.w3.org/2000/svg">
<path d="M175.259 52H6.74074C3.03502 52 0 49.0734 0 45.5V6.50001C0 2.92664 3.03502 1.21965e-05 6.74074 1.21965e-05H175.259C178.965 1.21965e-05 182 2.92664 182 6.50001V45.5C182 49.0734 178.965 52 175.259 52Z" fill="black"/>
<path d="M175.259 1.04163C178.38 1.04163 180.92 3.49051 180.92 6.50001V45.5C180.92 48.5095 178.38 50.9584 175.259 50.9584H6.74074C3.61978 50.9584 1.0802 48.5095 1.0802 45.5V6.50001C1.0802 3.49051 3.61978 1.04163 6.74074 1.04163H175.259ZM175.259 1.21965e-05H6.74074C3.03502 1.21965e-05 0 2.92664 0 6.50001V45.5C0 49.0734 3.03502 52 6.74074 52H175.259C178.965 52 182 49.0734 182 45.5V6.50001C182 2.92664 178.965 1.21965e-05 175.259 1.21965e-05Z" fill="#A6A6A6"/>
<path d="M63.926 13.3162C63.926 14.4017 63.589 15.2711 62.925 15.9195C62.1616 16.6881 61.1674 17.0748 59.949 17.0748C58.7845 17.0748 57.7903 16.6816 56.9746 15.9065C56.1573 15.12 55.7495 14.1547 55.7495 12.9993C55.7495 11.844 56.1573 10.8787 56.9746 10.0987C57.7903 9.31708 58.7845 8.92383 59.949 8.92383C60.5287 8.92383 61.0814 9.0392 61.6089 9.2537C62.1347 9.46983 62.5627 9.76233 62.8728 10.1231L62.1684 10.8088C61.6274 10.193 60.891 9.88908 59.949 9.88908C59.0997 9.88908 58.3632 10.1751 57.738 10.752C57.1196 11.3305 56.8095 12.0796 56.8095 12.9993C56.8095 13.9191 57.1196 14.6747 57.738 15.2532C58.3632 15.8236 59.0997 16.1161 59.949 16.1161C60.8506 16.1161 61.6089 15.8236 62.2071 15.2467C62.6015 14.8648 62.8256 14.3383 62.8846 13.6656H59.949V12.7263H63.8654C63.9125 12.9295 63.926 13.1261 63.926 13.3162Z" fill="white" stroke="white" stroke-width="0.16" stroke-miterlimit="10"/>
<path d="M70.1387 10.0602H66.4599V12.5302H69.7763V13.4694H66.4599V15.9394H70.1387V16.8965H65.4185V9.10303H70.1387V10.0602Z" fill="white" stroke="white" stroke-width="0.16" stroke-miterlimit="10"/>
<path d="M74.524 16.8965H73.4825V10.0602H71.2261V9.10303H76.7821V10.0602H74.524V16.8965Z" fill="white" stroke="white" stroke-width="0.16" stroke-miterlimit="10"/>
<path d="M80.8032 16.8965V9.10303H81.843V16.8965H80.8032Z" fill="white" stroke="white" stroke-width="0.16" stroke-miterlimit="10"/>
<path d="M86.4517 16.8965H85.4187V10.0602H83.1538V9.10303H88.7166V10.0602H86.4517V16.8965Z" fill="white" stroke="white" stroke-width="0.16" stroke-miterlimit="10"/>
<path d="M99.2356 15.8935C98.4385 16.6816 97.451 17.0748 96.273 17.0748C95.0883 17.0748 94.1008 16.6816 93.3037 15.8935C92.5083 15.107 92.1123 14.1417 92.1123 12.9993C92.1123 11.857 92.5083 10.8917 93.3037 10.1052C94.1008 9.31708 95.0883 8.92383 96.273 8.92383C97.4442 8.92383 98.4318 9.31708 99.2289 10.1117C100.031 10.9047 100.427 11.8635 100.427 12.9993C100.427 14.1417 100.031 15.107 99.2356 15.8935ZM94.0739 15.2402C94.6738 15.8236 95.4035 16.1161 96.273 16.1161C97.1358 16.1161 97.8723 15.8236 98.4655 15.2402C99.0637 14.6568 99.367 13.9077 99.367 12.9993C99.367 12.091 99.0637 11.3418 98.4655 10.7585C97.8723 10.1751 97.1358 9.88258 96.273 9.88258C95.4035 9.88258 94.6738 10.1751 94.0739 10.7585C93.4756 11.3418 93.1723 12.091 93.1723 12.9993C93.1723 13.9077 93.4756 14.6568 94.0739 15.2402Z" fill="white" stroke="white" stroke-width="0.16" stroke-miterlimit="10"/>
<path d="M101.888 16.8965V9.10303H103.152L107.082 15.1643H107.127L107.082 13.666V9.10303H108.122V16.8965H107.036L102.921 10.5363H102.876L102.921 12.041V16.8965H101.888Z" fill="white" stroke="white" stroke-width="0.16" stroke-miterlimit="10"/>
<path d="M91.8557 28.2778C88.6892 28.2778 86.1025 30.6015 86.1025 33.8077C86.1025 36.9878 88.6892 39.3359 91.8557 39.3359C95.0289 39.3359 97.6157 36.9878 97.6157 33.8077C97.6157 30.6015 95.0289 28.2778 91.8557 28.2778ZM91.8557 37.1584C90.1183 37.1584 88.6235 35.7755 88.6235 33.8077C88.6235 31.8138 90.1183 30.4553 91.8557 30.4553C93.5931 30.4553 95.0946 31.8138 95.0946 33.8077C95.0946 35.7755 93.5931 37.1584 91.8557 37.1584ZM79.3027 28.2778C76.1295 28.2778 73.5495 30.6015 73.5495 33.8077C73.5495 36.9878 76.1295 39.3359 79.3027 39.3359C82.4743 39.3359 85.056 36.9878 85.056 33.8077C85.056 30.6015 82.4743 28.2778 79.3027 28.2778ZM79.3027 37.1584C77.5636 37.1584 76.0638 35.7755 76.0638 33.8077C76.0638 31.8138 77.5636 30.4553 79.3027 30.4553C81.0402 30.4553 82.5349 31.8138 82.5349 33.8077C82.5349 35.7755 81.0402 37.1584 79.3027 37.1584ZM64.3653 29.9727V32.3224H70.1842C70.014 33.6354 69.559 34.6007 68.8614 35.2734C68.012 36.0859 66.6891 36.9878 64.3653 36.9878C60.7843 36.9878 57.9801 34.2009 57.9801 30.7478C57.9801 27.2947 60.7843 24.5078 64.3653 24.5078C66.3016 24.5078 67.7104 25.2374 68.7501 26.1832L70.4673 24.5273C69.013 23.1883 67.0784 22.1597 64.3653 22.1597C59.4547 22.1597 55.3276 26.0125 55.3276 30.7478C55.3276 35.483 59.4547 39.3359 64.3653 39.3359C67.0194 39.3359 69.013 38.4974 70.5802 36.9244C72.1862 35.3758 72.6867 33.1983 72.6867 31.44C72.6867 30.894 72.6395 30.3919 72.5553 29.9727H64.3653ZM125.446 31.7943C124.973 30.5577 123.512 28.2778 120.536 28.2778C117.587 28.2778 115.131 30.5187 115.131 33.8077C115.131 36.9049 117.561 39.3359 120.819 39.3359C123.453 39.3359 124.973 37.7873 125.598 36.8854L123.643 35.6293C122.991 36.549 122.103 37.1584 120.819 37.1584C119.543 37.1584 118.628 36.5945 118.042 35.483L125.711 32.4232L125.446 31.7943ZM117.627 33.6354C117.562 31.5034 119.344 30.4114 120.622 30.4114C121.623 30.4114 122.472 30.894 122.755 31.5847L117.627 33.6354ZM111.394 38.9995H113.915V22.7496H111.394V38.9995ZM107.265 29.5095H107.181C106.615 28.8628 105.534 28.2778 104.166 28.2778C101.294 28.2778 98.6689 30.7088 98.6689 33.8255C98.6689 36.9244 101.294 39.3359 104.166 39.3359C105.534 39.3359 106.615 38.746 107.181 38.0798H107.265V38.8728C107.265 40.9869 106.094 42.1228 104.205 42.1228C102.664 42.1228 101.709 41.0503 101.315 40.1484L99.1222 41.0308C99.7542 42.4965 101.428 44.3003 104.205 44.3003C107.161 44.3003 109.655 42.6233 109.655 38.5429V28.6142H107.265V29.5095ZM104.382 37.1584C102.644 37.1584 101.19 35.756 101.19 33.8255C101.19 31.8772 102.644 30.4553 104.382 30.4553C106.094 30.4553 107.444 31.8772 107.444 33.8255C107.444 35.756 106.094 37.1584 104.382 37.1584ZM137.25 22.7496H131.22V38.9995H133.734V32.8424H137.25C140.042 32.8424 142.78 30.894 142.78 27.7952C142.78 24.6979 140.035 22.7496 137.25 22.7496ZM137.315 30.582H133.734V25.0099H137.315C139.193 25.0099 140.264 26.513 140.264 27.7952C140.264 29.0529 139.193 30.582 137.315 30.582ZM152.858 28.2469C151.041 28.2469 149.152 29.0204 148.375 30.7348L150.606 31.6367C151.087 30.7348 151.97 30.4423 152.903 30.4423C154.208 30.4423 155.53 31.1979 155.551 32.532V32.7027C155.096 32.4492 154.122 32.0738 152.923 32.0738C150.52 32.0738 148.072 33.3494 148.072 35.73C148.072 37.9075 150.04 39.3099 152.253 39.3099C153.945 39.3099 154.878 38.5738 155.465 37.7174H155.551V38.9735H157.979V32.74C157.979 29.8589 155.748 28.2469 152.858 28.2469ZM152.554 37.1519C151.732 37.1519 150.586 36.7587 150.586 35.7755C150.586 34.5178 152.015 34.0352 153.252 34.0352C154.359 34.0352 154.878 34.2708 155.551 34.5812C155.353 36.0859 154.01 37.1519 152.554 37.1519ZM166.826 28.6028L163.936 35.6472H163.85L160.862 28.6028H158.151L162.64 38.447L160.079 43.9249H162.706L169.624 28.6028H166.826ZM144.162 38.9995H146.683V22.7496H144.162V38.9995Z" fill="white"/>
<path d="M14.0681 9.80044C13.6721 10.2002 13.4429 10.8226 13.4429 11.6286V40.3781C13.4429 41.1841 13.6721 41.8064 14.0681 42.2062L14.1658 42.2939L30.8727 26.1902V25.8099L14.1658 9.7062L14.0681 9.80044Z" fill="url(#paint0_linear_2413_3897)"/>
<path d="M36.4354 31.5601L30.8726 26.1894V25.8092L36.4421 20.4386L36.5668 20.5084L43.1626 24.1273C45.045 25.1543 45.045 26.8443 43.1626 27.8778L36.5668 31.4902L36.4354 31.5601Z" fill="url(#paint1_linear_2413_3897)"/>
<path d="M36.5668 31.4907L30.8725 25.9998L14.0679 42.206C14.6931 42.8397 15.7126 42.9161 16.872 42.2823L36.5668 31.4907Z" fill="url(#paint2_linear_2413_3897)"/>
<path d="M36.5668 20.5086L16.872 9.71701C15.7126 9.08976 14.6931 9.16614 14.0679 9.79989L30.8725 25.9995L36.5668 20.5086Z" fill="url(#paint3_linear_2413_3897)"/>
<defs>
<linearGradient id="paint0_linear_2413_3897" x1="29.3894" y1="40.6775" x2="7.58666" y2="18.0673" gradientUnits="userSpaceOnUse">
<stop stop-color="#00A0FF"/>
<stop offset="0.0066" stop-color="#00A1FF"/>
<stop offset="0.2601" stop-color="#00BEFF"/>
<stop offset="0.5122" stop-color="#00D2FF"/>
<stop offset="0.7604" stop-color="#00DFFF"/>
<stop offset="1" stop-color="#00E3FF"/>
</linearGradient>
<linearGradient id="paint1_linear_2413_3897" x1="45.6137" y1="25.9975" x2="12.9927" y2="25.9975" gradientUnits="userSpaceOnUse">
<stop stop-color="#FFE000"/>
<stop offset="0.4087" stop-color="#FFBD00"/>
<stop offset="0.7754" stop-color="#FFA500"/>
<stop offset="1" stop-color="#FF9C00"/>
</linearGradient>
<linearGradient id="paint2_linear_2413_3897" x1="33.4704" y1="23.0149" x2="3.90418" y2="-7.64636" gradientUnits="userSpaceOnUse">
<stop stop-color="#FF3A44"/>
<stop offset="1" stop-color="#C31162"/>
</linearGradient>
<linearGradient id="paint3_linear_2413_3897" x1="9.83779" y1="51.7705" x2="23.0404" y2="38.0789" gradientUnits="userSpaceOnUse">
<stop stop-color="#32A071"/>
<stop offset="0.0685" stop-color="#2DA771"/>
<stop offset="0.4762" stop-color="#15CF74"/>
<stop offset="0.8009" stop-color="#06E775"/>
<stop offset="1" stop-color="#00F076"/>
</linearGradient>
</defs>
</svg>
