<svg width="46" height="33" viewBox="0 0 46 33" fill="none" xmlns="http://www.w3.org/2000/svg">
<path fill-rule="evenodd" clip-rule="evenodd" d="M31.5449 29.4683L34.0915 32.5C42.5803 32.3787 45.8546 26.6791 45.8546 26.6791C45.8546 14.0672 40.2762 4.00187 40.2762 4.00187C34.5766 0 29.362 0 29.362 0L28.7557 0.485075C35.1829 2.18284 39.3061 5.45709 39.1848 5.57836C32.515 0.485075 15.5374 0 7.29114 5.57836C7.29114 5.57836 10.3229 2.42537 17.3564 0.485075L16.9926 0C16.9926 0 11.7781 0 6.07845 4.00187C6.07845 4.00187 0.500092 14.0672 0.500092 26.6791C0.500092 26.6791 3.77435 32.3787 12.2632 32.5L15.0523 29.4683C9.95905 27.8918 8.26129 24.7388 8.26129 24.7388C14.9311 30.9235 32.1512 30.681 38.4572 24.7388C38.4572 24.7388 36.5169 28.1343 31.5449 29.4683ZM15.9016 23.041C18.1118 23.041 19.9035 21.1408 19.9035 18.7966C19.9035 16.4525 18.1118 14.5522 15.9016 14.5522C13.6914 14.5522 11.8998 16.4525 11.8998 18.7966C11.8998 21.1408 13.6914 23.041 15.9016 23.041ZM29.9691 23.041C32.1793 23.041 33.971 21.1408 33.971 18.7966C33.971 16.4525 32.1793 14.5522 29.9691 14.5522C27.759 14.5522 25.9673 16.4525 25.9673 18.7966C25.9673 21.1408 27.759 23.041 29.9691 23.041Z" fill="white"/>
</svg>
