<svg width="28" height="34" viewBox="0 0 28 34" fill="none" xmlns="http://www.w3.org/2000/svg">
<path d="M8.78612 8.4565C10.1329 8.41708 11.2497 8.87695 12.3731 9.29741C12.8724 9.48793 13.3717 9.67844 13.8907 9.81641C14.298 9.92809 14.6922 9.87553 15.0798 9.731C15.7499 9.48793 16.4134 9.24485 17.0835 8.99521C18.2529 8.56161 19.4552 8.26598 20.7034 8.34481C23.0356 8.48935 25.013 9.39595 26.5175 11.2289C26.7803 11.5442 26.7606 11.5771 26.4321 11.807C23.9948 13.5217 22.9305 15.8802 23.259 18.8299C23.548 21.4512 24.9342 23.3301 27.273 24.5192C27.5752 24.6703 27.6343 24.8082 27.5226 25.117C26.7409 27.2521 25.6372 29.2033 24.1918 30.9574C23.7582 31.483 23.3181 31.9954 22.8057 32.4355C21.656 33.4144 20.3552 33.6312 18.9033 33.2502C18.1609 33.0531 17.4711 32.718 16.7419 32.475C15.336 32.0151 13.9498 32.1005 12.5571 32.5472C11.8278 32.7837 11.138 33.1056 10.3957 33.3093C8.95036 33.7101 7.72841 33.3553 6.651 32.3436C4.82465 30.6355 3.47131 28.5923 2.45959 26.3258C1.71722 24.6834 1.18508 22.949 0.89602 21.149C0.534692 18.9219 0.508413 16.7079 1.19165 14.5334C1.7435 12.753 2.69609 11.2289 4.17425 10.0792C5.55387 9.00834 7.12401 8.43022 8.78612 8.4565Z" fill="white"/>
<path d="M14.0681 7.27358C14.1338 5.19101 15.0404 3.52233 16.5842 2.16899C17.701 1.19012 19.0084 0.625137 20.4537 0.355783C20.6771 0.316366 20.7691 0.349214 20.7756 0.598859C20.7953 3.06903 19.8822 5.10561 17.9967 6.70859C16.9784 7.57578 15.8156 8.0028 14.4819 8.01594C14.1535 8.02251 14.0155 7.93054 14.0615 7.59549C14.0812 7.49694 14.0681 7.38526 14.0681 7.27358Z" fill="white"/>
</svg>
