<svg display="none" xmlns="http://www.w3.org/2000/svg">

    <symbol id="discord" viewBox="0 0 46 33" >
        <path fill-rule="evenodd" clip-rule="evenodd" d="M31.5449 29.4683L34.0915 32.5C42.5803 32.3787 45.8546 26.6791 45.8546 26.6791C45.8546 14.0672 40.2762 4.00187 40.2762 4.00187C34.5766 0 29.362 0 29.362 0L28.7557 0.485075C35.1829 2.18284 39.3061 5.45709 39.1848 5.57836C32.515 0.485075 15.5374 0 7.29114 5.57836C7.29114 5.57836 10.3229 2.42537 17.3564 0.485075L16.9926 0C16.9926 0 11.7781 0 6.07845 4.00187C6.07845 4.00187 0.500092 14.0672 0.500092 26.6791C0.500092 26.6791 3.77435 32.3787 12.2632 32.5L15.0523 29.4683C9.95905 27.8918 8.26129 24.7388 8.26129 24.7388C14.9311 30.9235 32.1512 30.681 38.4572 24.7388C38.4572 24.7388 36.5169 28.1343 31.5449 29.4683ZM15.9016 23.041C18.1118 23.041 19.9035 21.1408 19.9035 18.7966C19.9035 16.4525 18.1118 14.5522 15.9016 14.5522C13.6914 14.5522 11.8998 16.4525 11.8998 18.7966C11.8998 21.1408 13.6914 23.041 15.9016 23.041ZM29.9691 23.041C32.1793 23.041 33.971 21.1408 33.971 18.7966C33.971 16.4525 32.1793 14.5522 29.9691 14.5522C27.759 14.5522 25.9673 16.4525 25.9673 18.7966C25.9673 21.1408 27.759 23.041 29.9691 23.041Z" fill="white"/>
    </symbol>


    <symbol id="telegram" viewBox="0 0 50 51">
        <path d="M40.145 8.11386C40.145 8.11386 44.1922 6.53573 43.8549 10.3683C43.7425 11.9465 42.7308 17.4699 41.9438 23.4443L39.2457 41.1419C39.2457 41.1419 39.0209 43.7345 36.9972 44.1854C34.9736 44.6363 31.9383 42.6073 31.3761 42.1564C30.9264 41.8182 22.9445 36.7456 20.1339 34.2657C19.3469 33.5894 18.4475 32.2367 20.2463 30.6586L32.0507 19.3863C33.3997 18.0336 34.7488 14.8773 29.1276 18.7099L13.3886 29.4187C13.3886 29.4187 11.5898 30.5458 8.21723 29.5314L0.909753 27.2769C0.909753 27.2769 -1.78838 25.5861 2.82093 23.8951C14.0632 18.5971 27.8911 13.1864 40.145 8.11386Z" fill="white"/>
    </symbol>

    <symbol id="twitter" viewBox="0 0 50 51">
        <g clip-path="url(#clip0_543_253)">
            <path d="M50.0624 10.9375C48.2148 11.7578 46.2343 12.3086 44.1523 12.5586C46.2773 11.2852 47.9101 9.26953 48.6757 6.87109C46.6913 8.04688 44.4843 8.90234 42.1445 9.36328C40.2695 7.36328 37.5976 6.11719 34.6406 6.11719C28.9609 6.11719 24.3554 10.7188 24.3554 16.3984C24.3554 17.2031 24.4492 17.9883 24.6249 18.7422C16.0781 18.3125 8.50385 14.2188 3.42963 7.99609C2.54291 9.51953 2.039 11.2852 2.039 13.168C2.039 16.7344 3.8515 19.8828 6.61322 21.7305C4.92572 21.6758 3.33978 21.2109 1.95306 20.4414C1.95306 20.4844 1.95306 20.5273 1.95306 20.5703C1.95306 25.5547 5.49994 29.707 10.1992 30.6563C9.33978 30.8906 8.42963 31.0156 7.49213 31.0156C6.82806 31.0156 6.18353 30.9531 5.55463 30.8281C6.86713 34.9102 10.664 37.8906 15.1601 37.9727C11.6445 40.7305 7.21088 42.3711 2.39056 42.3711C1.55853 42.3711 0.742127 42.3242 -0.0586548 42.2266C4.48822 45.1484 9.89447 46.8477 15.7031 46.8477C34.6171 46.8477 44.9609 31.1797 44.9609 17.5938C44.9609 17.1484 44.9492 16.6992 44.9335 16.2617C46.9413 14.8125 48.6835 13 50.0624 10.9375Z" fill="white"/>
        </g>
        <defs>
            <clipPath id="clip0_543_253">
                <rect width="50" height="50" fill="white" transform="translate(-6.10352e-05 0.5)"/>
            </clipPath>
        </defs>
    </symbol>

    <symbol id="medium" viewBox="0 0 50 51">
         <path fill-rule="evenodd" clip-rule="evenodd" d="M25 3C37.4265 3 47.5 13.0735 47.5 25.5C47.5 37.9265 37.4265 48 25 48C12.5735 48 2.5 37.9265 2.5 25.5C2.5 13.0735 12.5735 3 25 3ZM18.3909 17.0081C23.0811 17.0081 26.8828 20.8107 26.8828 25.5C26.8828 30.1893 23.0811 33.9919 18.3909 33.9919C13.7016 33.9919 9.8999 30.1893 9.8999 25.5C9.8999 20.8107 13.7016 17.0081 18.3909 17.0081ZM31.9781 17.6792C34.3514 17.6792 36.2747 21.1805 36.2747 25.5C36.2747 29.8195 34.3514 33.3208 31.9781 33.3208C29.6048 33.3208 27.6815 29.8195 27.6815 25.5C27.6815 21.1805 29.6048 17.6792 31.9781 17.6792ZM38.6039 18.3493C39.4299 18.3493 40.1001 21.5504 40.1001 25.5C40.1001 29.4496 39.4299 32.6507 38.6039 32.6507C37.777 32.6507 37.1069 29.4496 37.1069 25.5C37.1069 21.5504 37.777 18.3493 38.6039 18.3493Z" fill="white"/>
    </symbol>

    <symbol id="instagram" viewBox="0 0 46 45">
        <path d="M23 29.4444C26.8354 29.4444 29.9446 26.3353 29.9446 22.5C29.9446 18.6647 26.8354 15.5556 23 15.5556C19.1645 15.5556 16.0554 18.6647 16.0554 22.5C16.0554 26.3353 19.1645 29.4444 23 29.4444Z" fill="white"/>
        <path fill-rule="evenodd" clip-rule="evenodd" d="M13 0C6.09644 0 0.5 5.59644 0.5 12.5V32.5C0.5 39.4036 6.09644 45 13 45H33C39.9036 45 45.5 39.4036 45.5 32.5V12.5C45.5 5.59644 39.9036 0 33 0H13ZM38 7.5C38 8.88073 36.8806 10 35.5 10C34.1194 10 33 8.88073 33 7.5C33 6.11927 34.1194 5 35.5 5C36.8806 5 38 6.11927 38 7.5ZM23 35C29.9031 35 35.5 29.4036 35.5 22.5C35.5 15.5964 29.9031 10 23 10C16.0969 10 10.5 15.5964 10.5 22.5C10.5 29.4036 16.0969 35 23 35Z" fill="white"/>
    </symbol>

</svg>