<svg width="33" height="34" viewBox="0 0 33 34" fill="none" xmlns="http://www.w3.org/2000/svg">
<g clip-path="url(#clip0_2407_2634)">
<path d="M1.53881 0.34375C1.21126 0.867835 1.01473 1.49019 0.949219 2.2108V31.7888C1.01473 32.5095 1.21126 33.1318 1.53881 33.6559L18.1457 16.9507" fill="#2FCFFF"/>
<path d="M18.1455 16.9508L23.8449 22.6502L30.3305 18.9161C32.6233 17.6714 32.6233 16.3939 30.3305 15.0837L23.8449 11.3496" fill="#FDCC00"/>
<path d="M1.53857 33.6559C2.58674 34.1145 3.53665 34.1145 4.38828 33.6559L23.9432 22.6501L18.2438 16.9507" fill="#F0304B"/>
<path d="M1.53857 0.343931L18.1455 16.9509L23.8449 11.3497L4.38829 0.343931C3.34012 -0.114644 2.39021 -0.114644 1.53857 0.343931Z" fill="#43E475"/>
</g>
<defs>
<clipPath id="clip0_2407_2634">
<rect width="31.1011" height="34" fill="white" transform="translate(0.949219)"/>
</clipPath>
</defs>
</svg>
