<svg display="none" xmlns="http://www.w3.org/2000/svg">

    <symbol id="discord" viewBox="0 0 46 33" >
        <path fill-rule="evenodd" clip-rule="evenodd" d="M31.5449 29.4683L34.0915 32.5C42.5803 32.3787 45.8546 26.6791 45.8546 26.6791C45.8546 14.0672 40.2762 4.00187 40.2762 4.00187C34.5766 0 29.362 0 29.362 0L28.7557 0.485075C35.1829 2.18284 39.3061 5.45709 39.1848 5.57836C32.515 0.485075 15.5374 0 7.29114 5.57836C7.29114 5.57836 10.3229 2.42537 17.3564 0.485075L16.9926 0C16.9926 0 11.7781 0 6.07845 4.00187C6.07845 4.00187 0.500092 14.0672 0.500092 26.6791C0.500092 26.6791 3.77435 32.3787 12.2632 32.5L15.0523 29.4683C9.95905 27.8918 8.26129 24.7388 8.26129 24.7388C14.9311 30.9235 32.1512 30.681 38.4572 24.7388C38.4572 24.7388 36.5169 28.1343 31.5449 29.4683ZM15.9016 23.041C18.1118 23.041 19.9035 21.1408 19.9035 18.7966C19.9035 16.4525 18.1118 14.5522 15.9016 14.5522C13.6914 14.5522 11.8998 16.4525 11.8998 18.7966C11.8998 21.1408 13.6914 23.041 15.9016 23.041ZM29.9691 23.041C32.1793 23.041 33.971 21.1408 33.971 18.7966C33.971 16.4525 32.1793 14.5522 29.9691 14.5522C27.759 14.5522 25.9673 16.4525 25.9673 18.7966C25.9673 21.1408 27.759 23.041 29.9691 23.041Z"/>
    </symbol>


    <symbol id="telegram" viewBox="0 0 50 51">
        <path d="M40.145 8.11386C40.145 8.11386 44.1922 6.53573 43.8549 10.3683C43.7425 11.9465 42.7308 17.4699 41.9438 23.4443L39.2457 41.1419C39.2457 41.1419 39.0209 43.7345 36.9972 44.1854C34.9736 44.6363 31.9383 42.6073 31.3761 42.1564C30.9264 41.8182 22.9445 36.7456 20.1339 34.2657C19.3469 33.5894 18.4475 32.2367 20.2463 30.6586L32.0507 19.3863C33.3997 18.0336 34.7488 14.8773 29.1276 18.7099L13.3886 29.4187C13.3886 29.4187 11.5898 30.5458 8.21723 29.5314L0.909753 27.2769C0.909753 27.2769 -1.78838 25.5861 2.82093 23.8951C14.0632 18.5971 27.8911 13.1864 40.145 8.11386Z"/>
    </symbol>

    <symbol id="twitter" viewBox="0 0 50 51">
        <g clip-path="url(#clip0_543_253)">
            <path d="M50.0624 10.9375C48.2148 11.7578 46.2343 12.3086 44.1523 12.5586C46.2773 11.2852 47.9101 9.26953 48.6757 6.87109C46.6913 8.04688 44.4843 8.90234 42.1445 9.36328C40.2695 7.36328 37.5976 6.11719 34.6406 6.11719C28.9609 6.11719 24.3554 10.7188 24.3554 16.3984C24.3554 17.2031 24.4492 17.9883 24.6249 18.7422C16.0781 18.3125 8.50385 14.2188 3.42963 7.99609C2.54291 9.51953 2.039 11.2852 2.039 13.168C2.039 16.7344 3.8515 19.8828 6.61322 21.7305C4.92572 21.6758 3.33978 21.2109 1.95306 20.4414C1.95306 20.4844 1.95306 20.5273 1.95306 20.5703C1.95306 25.5547 5.49994 29.707 10.1992 30.6563C9.33978 30.8906 8.42963 31.0156 7.49213 31.0156C6.82806 31.0156 6.18353 30.9531 5.55463 30.8281C6.86713 34.9102 10.664 37.8906 15.1601 37.9727C11.6445 40.7305 7.21088 42.3711 2.39056 42.3711C1.55853 42.3711 0.742127 42.3242 -0.0586548 42.2266C4.48822 45.1484 9.89447 46.8477 15.7031 46.8477C34.6171 46.8477 44.9609 31.1797 44.9609 17.5938C44.9609 17.1484 44.9492 16.6992 44.9335 16.2617C46.9413 14.8125 48.6835 13 50.0624 10.9375Z"/>
        </g>
        <defs>
            <clipPath id="clip0_543_253">
                <rect width="50" height="50" transform="translate(-6.10352e-05 0.5)"/>
            </clipPath>
        </defs>
    </symbol>

    <symbol id="medium" viewBox="0 0 50 51">
         <path fill-rule="evenodd" clip-rule="evenodd" d="M25 3C37.4265 3 47.5 13.0735 47.5 25.5C47.5 37.9265 37.4265 48 25 48C12.5735 48 2.5 37.9265 2.5 25.5C2.5 13.0735 12.5735 3 25 3ZM18.3909 17.0081C23.0811 17.0081 26.8828 20.8107 26.8828 25.5C26.8828 30.1893 23.0811 33.9919 18.3909 33.9919C13.7016 33.9919 9.8999 30.1893 9.8999 25.5C9.8999 20.8107 13.7016 17.0081 18.3909 17.0081ZM31.9781 17.6792C34.3514 17.6792 36.2747 21.1805 36.2747 25.5C36.2747 29.8195 34.3514 33.3208 31.9781 33.3208C29.6048 33.3208 27.6815 29.8195 27.6815 25.5C27.6815 21.1805 29.6048 17.6792 31.9781 17.6792ZM38.6039 18.3493C39.4299 18.3493 40.1001 21.5504 40.1001 25.5C40.1001 29.4496 39.4299 32.6507 38.6039 32.6507C37.777 32.6507 37.1069 29.4496 37.1069 25.5C37.1069 21.5504 37.777 18.3493 38.6039 18.3493Z"/>
    </symbol>

    <symbol id="instagram" viewBox="0 0 46 45">
        <path d="M23 29.4444C26.8354 29.4444 29.9446 26.3353 29.9446 22.5C29.9446 18.6647 26.8354 15.5556 23 15.5556C19.1645 15.5556 16.0554 18.6647 16.0554 22.5C16.0554 26.3353 19.1645 29.4444 23 29.4444Z"/>
        <path fill-rule="evenodd" clip-rule="evenodd" d="M13 0C6.09644 0 0.5 5.59644 0.5 12.5V32.5C0.5 39.4036 6.09644 45 13 45H33C39.9036 45 45.5 39.4036 45.5 32.5V12.5C45.5 5.59644 39.9036 0 33 0H13ZM38 7.5C38 8.88073 36.8806 10 35.5 10C34.1194 10 33 8.88073 33 7.5C33 6.11927 34.1194 5 35.5 5C36.8806 5 38 6.11927 38 7.5ZM23 35C29.9031 35 35.5 29.4036 35.5 22.5C35.5 15.5964 29.9031 10 23 10C16.0969 10 10.5 15.5964 10.5 22.5C10.5 29.4036 16.0969 35 23 35Z" />
    </symbol>

    <symbol id="user" viewBox="0 0 26 26">
        <path d="M19.8356 22.3883C15.5956 25.4659 9.98719 25.2882 6.00048 22.3268C6.00048 20.0003 7.75048 17.667 10.6671 17.667L15.3338 17.667C18.2505 17.667 20.0005 20.0003 20.0005 22.2665C19.946 22.3075 19.891 22.3481 19.8356 22.3883Z"/>
        <path d="M13.0005 14.167C13.8081 14.167 14.5976 13.9275 15.2691 13.4788C15.9406 13.0302 16.4639 12.3924 16.773 11.6463C17.082 10.9002 17.1629 10.0791 17.0054 9.28706C16.8478 8.49497 16.4589 7.76739 15.8878 7.19632C15.3168 6.62526 14.5892 6.23636 13.7971 6.0788C13.005 5.92125 12.184 6.00211 11.4379 6.31117C10.6917 6.62023 10.054 7.1436 9.60533 7.8151C9.15664 8.4866 8.91716 9.27607 8.91716 10.0837C8.9161 10.6202 9.02099 11.1517 9.22582 11.6476C9.43065 12.1434 9.73139 12.594 10.1108 12.9734C10.4902 13.3528 10.9407 13.6535 11.4366 13.8583C11.9325 14.0632 12.464 14.1681 13.0005 14.167Z"/>
        <path d="M6.12926 3.50497L5.71807 2.93847L6.12926 3.50497ZM3.51982 19.815L2.95332 20.2262L3.51982 19.815ZM19.8356 22.3883L19.4244 21.8218L19.8356 22.3883ZM23.0519 7.0023L22.4468 7.3542L22.4494 7.3586L23.0519 7.0023ZM10.6671 17.667V16.967V17.667ZM15.3338 17.667V16.967V17.667ZM13.0005 14.167V13.467L12.9991 13.467L13.0005 14.167ZM8.91716 10.0837L9.61716 10.0851V10.0837H8.91716ZM5.71807 2.93847C0.180334 6.95799 -1.05953 14.6976 2.95332 20.2262L4.08632 19.4038C0.529378 14.5034 1.62609 7.63852 6.54045 4.07147L5.71807 2.93847ZM23.6571 6.65042C21.7012 3.28692 18.2382 1.60849 14.8122 1.13513C11.4053 0.664415 7.88736 1.36391 5.71807 2.93847L6.54045 4.07147C8.34194 2.76388 11.4677 2.08633 14.6206 2.52196C17.7545 2.95495 20.7674 4.46626 22.4468 7.35419L23.6571 6.65042ZM2.95332 20.2262C3.70968 21.2682 4.59955 22.1581 5.58306 22.8887L6.4179 21.7648C5.54716 21.118 4.7582 20.3295 4.08632 19.4038L2.95332 20.2262ZM5.58306 22.8887C9.80898 26.0278 15.7529 26.2167 20.2468 22.9548L19.4244 21.8218C15.4382 24.7151 10.1654 24.5486 6.4179 21.7648L5.58306 22.8887ZM6.70048 22.3268C6.70048 20.329 8.19255 18.367 10.6671 18.367L10.6671 16.967C7.30841 16.967 5.30048 19.6716 5.30048 22.3268H6.70048ZM10.6671 18.367C13.9338 18.367 14.556 18.367 15.3338 18.367V16.967C14.556 16.967 13.9338 16.967 10.6671 16.967V18.367ZM20.2468 22.9548C20.3054 22.9123 20.3636 22.8693 20.4213 22.8258L19.5796 21.7071C19.5283 21.7457 19.4766 21.784 19.4244 21.8218L20.2468 22.9548ZM20.4213 22.8258C25.4958 19.008 26.8305 12.0168 23.6545 6.646L22.4494 7.3586C25.2639 12.1182 24.0817 18.3199 19.5796 21.7071L20.4213 22.8258ZM15.3338 18.367C17.8139 18.367 19.3005 20.335 19.3005 22.2665H20.7005C20.7005 19.6657 18.6871 16.967 15.3338 16.967V18.367ZM10.6671 18.367H15.3338V16.967L10.6671 16.967L10.6671 18.367ZM13.0005 14.867C13.9465 14.867 14.8713 14.5865 15.658 14.0609L14.8802 12.8968C14.3238 13.2686 13.6696 13.467 13.0005 13.467V14.867ZM15.658 14.0609C16.4446 13.5353 17.0577 12.7882 17.4197 11.9142L16.1263 11.3784C15.8702 11.9966 15.4366 12.525 14.8802 12.8968L15.658 14.0609ZM17.4197 11.9142C17.7817 11.0401 17.8765 10.0784 17.6919 9.15049L16.3188 9.42362C16.4494 10.0799 16.3824 10.7602 16.1263 11.3784L17.4197 11.9142ZM17.6919 9.15049C17.5073 8.22262 17.0518 7.37031 16.3828 6.70135L15.3929 7.6913C15.866 8.16447 16.1883 8.76732 16.3188 9.42362L17.6919 9.15049ZM16.3828 6.70135C15.7139 6.03239 14.8615 5.57682 13.9337 5.39226L13.6605 6.76535C14.3168 6.8959 14.9197 7.21813 15.3929 7.6913L16.3828 6.70135ZM13.9337 5.39226C13.0058 5.20769 12.044 5.30242 11.17 5.66445L11.7057 6.95789C12.324 6.70181 13.0042 6.63481 13.6605 6.76535L13.9337 5.39226ZM11.17 5.66445C10.2959 6.02649 9.5489 6.63958 9.0233 7.4262L10.1874 8.204C10.5591 7.64761 11.0875 7.21396 11.7057 6.95789L11.17 5.66445ZM9.0233 7.4262C8.4977 8.21281 8.21716 9.13762 8.21716 10.0837H9.61716C9.61716 9.41451 9.81559 8.76038 10.1874 8.204L9.0233 7.4262ZM8.21716 10.0823C8.21592 10.711 8.33883 11.3337 8.57884 11.9148L9.8728 11.3803C9.70315 10.9696 9.61628 10.5294 9.61716 10.0851L8.21716 10.0823ZM8.57884 11.9148C8.81885 12.4959 9.17124 13.0238 9.61579 13.4684L10.6057 12.4784C10.2915 12.1642 10.0424 11.791 9.8728 11.3803L8.57884 11.9148ZM9.61579 13.4684C10.0603 13.9129 10.5883 14.2653 11.1694 14.5053L11.7038 13.2114C11.2931 13.0417 10.92 12.7926 10.6057 12.4784L9.61579 13.4684ZM11.1694 14.5053C11.7504 14.7453 12.3732 14.8682 13.0019 14.867L12.9991 13.467C12.5547 13.4679 12.1146 13.381 11.7038 13.2114L11.1694 14.5053Z"/>
    </symbol>



    <symbol id="arrow-right" width="7" height="11" viewBox="0 0 7 11" >
        <path d="M1.65079 10.085C1.00212 10.641 -5.76932e-08 10.1801 -9.50382e-08 9.32578L-4.29498e-07 1.67422C-4.66843e-07 0.819867 1.00212 0.358958 1.65079 0.914964L6.1142 4.74074C6.57981 5.13984 6.57981 5.86016 6.1142 6.25926L1.65079 10.085Z"/>
    </symbol>

    <symbol id="arrow-left" width="7" height="11" viewBox="0 0 7 11">
        <path d="M5.34921 10.085C5.99788 10.641 7 10.1801 7 9.32578L7 1.67422C7 0.819867 5.99788 0.358958 5.34921 0.914964L0.885799 4.74074C0.420188 5.13984 0.420187 5.86016 0.885799 6.25926L5.34921 10.085Z"/>
    </symbol>


    <symbol id="arrow-back">
        <path d="M0.404537 10.2726C0.0140129 10.6632 0.0140139 11.2963 0.404538 11.6869C0.795062 12.0774 1.42823 12.0774 1.81875 11.6869L11.698 1.80763C12.0885 1.41711 12.0885 0.783942 11.698 0.393418C11.3075 0.00289384 10.6743 0.00289384 10.2838 0.393418L0.404537 10.2726Z" fill="white"/>
        <path d="M1.80743 10.3017C1.4169 9.91118 0.783738 9.91118 0.393213 10.3017C0.002689 10.6922 0.002689 11.3254 0.393213 11.7159L10.2839 21.6066C10.6744 21.9971 11.3075 21.9971 11.6981 21.6066C12.0886 21.216 12.0886 20.5829 11.6981 20.1924L1.80743 10.3017Z" fill="white"/>
    </symbol>
</svg>