<svg width="46" height="45" viewBox="0 0 46 45" fill="none" xmlns="http://www.w3.org/2000/svg">
<path d="M23 29.4444C26.8354 29.4444 29.9446 26.3353 29.9446 22.5C29.9446 18.6647 26.8354 15.5556 23 15.5556C19.1645 15.5556 16.0554 18.6647 16.0554 22.5C16.0554 26.3353 19.1645 29.4444 23 29.4444Z" fill="white"/>
<path fill-rule="evenodd" clip-rule="evenodd" d="M13 0C6.09644 0 0.5 5.59644 0.5 12.5V32.5C0.5 39.4036 6.09644 45 13 45H33C39.9036 45 45.5 39.4036 45.5 32.5V12.5C45.5 5.59644 39.9036 0 33 0H13ZM38 7.5C38 8.88073 36.8806 10 35.5 10C34.1194 10 33 8.88073 33 7.5C33 6.11927 34.1194 5 35.5 5C36.8806 5 38 6.11927 38 7.5ZM23 35C29.9031 35 35.5 29.4036 35.5 22.5C35.5 15.5964 29.9031 10 23 10C16.0969 10 10.5 15.5964 10.5 22.5C10.5 29.4036 16.0969 35 23 35Z" fill="white"/>
</svg>
