<svg width="200" height="35" viewBox="0 0 200 35" fill="none" xmlns="http://www.w3.org/2000/svg">
<g clip-path="url(#clip0_202_675)">
<path d="M43.0103 16.0786H46.5939V12.0987H58.791V9.25586H46.5939V7.04478H59.1053V3.94928H43.0103V16.0786Z" fill="white"/>
<path d="M75.7034 4.39149C73.8623 3.87722 71.955 3.64298 70.0449 3.69658C68.1348 3.64298 66.2275 3.87722 64.3865 4.39149C63.1228 4.7227 61.9986 5.45361 61.1801 6.47621C60.4708 7.53783 60.1183 8.79968 60.1741 10.0771C60.1184 11.3348 60.4715 12.5766 61.1801 13.6148C61.9986 14.6374 63.1228 15.3683 64.3865 15.6996C66.2275 16.2138 68.1348 16.4481 70.0449 16.3945C71.955 16.4481 73.8623 16.2138 75.7034 15.6996C76.9671 15.3683 78.0913 14.6374 78.9098 13.6148C79.6369 12.5825 80.0119 11.3414 79.9786 10.0771C80.0333 8.79046 79.657 7.52254 78.9098 6.47621C78.1095 5.43355 76.9779 4.69781 75.7034 4.39149ZM75.9548 11.5301C75.7205 11.9552 75.3719 12.3054 74.9489 12.5409C74.3636 12.8534 73.7226 13.0466 73.0628 13.1094C72.0617 13.2355 71.0538 13.2988 70.0449 13.299C68.7802 13.3194 67.5166 13.2136 66.2727 12.9831C65.535 12.8555 64.8545 12.5026 64.3236 11.9723C63.9216 11.4258 63.7216 10.7557 63.7578 10.0771C63.7216 9.3985 63.9216 8.7284 64.3236 8.1819C64.8378 7.6291 65.5264 7.27199 66.2727 7.17112C67.5166 6.94063 68.7802 6.83482 70.0449 6.85526C71.0538 6.85544 72.0617 6.91873 73.0628 7.04478C73.7226 7.10757 74.3636 7.30079 74.9489 7.61334C75.3852 7.83061 75.7386 8.18568 75.9548 8.62411C76.1553 9.10462 76.262 9.61933 76.2692 10.1403C76.2727 10.6217 76.1651 11.0975 75.9548 11.5301Z" fill="white"/>
<path d="M96.6395 11.7828C97.2617 11.4937 97.7705 11.0047 98.0856 10.393C98.4366 9.71055 98.6097 8.94981 98.5885 8.18191C98.5911 7.49015 98.4631 6.80418 98.2113 6.16035C98.0058 5.64962 97.6562 5.21043 97.2054 4.89688C96.7087 4.56417 96.1542 4.32842 95.5707 4.20197C94.888 4.05566 94.1937 3.97109 93.496 3.94928H81.4247V16.0786H85.0083V12.5409H89.5979L93.9361 16.0786H98.4628L94.5019 12.9199L93.5588 12.3514H94.307C95.1101 12.2903 95.8979 12.0983 96.6395 11.7828ZM93.1816 9.88759H85.0712V7.04478H93.1816C93.6446 6.99737 94.1099 7.10869 94.5019 7.36065C94.6535 7.50399 94.7674 7.68293 94.8333 7.8814C94.8991 8.07988 94.9149 8.29167 94.8791 8.49777C94.8937 8.69328 94.8677 8.88969 94.8028 9.07456C94.7378 9.25944 94.6354 9.42874 94.5019 9.57172C94.0876 9.76573 93.6384 9.87319 93.1816 9.88759Z" fill="white"/>
<path d="M111.729 13.1094L104.561 3.94928H100.16V16.0786H103.744V8.24508L109.905 16.0786H113.552L119.65 8.24508V16.0786H123.234V3.94928H118.959L111.729 13.1094Z" fill="white"/>
<path d="M135.494 3.94928H131.785L123.926 16.0786H128.258L129.704 13.7412H138.631L140.077 16.0786H144.415L136.619 3.94928H135.494ZM131.282 11.2142L134.174 6.53939L137.066 11.2142H131.282Z" fill="white"/>
<path d="M173.28 3.94928H169.57L161.711 16.0786H166.049L167.496 13.7412H176.423L177.869 16.0786H182.207L174.349 3.94928H173.28ZM169.067 11.2142L171.959 6.53939L174.851 11.2142H169.067Z" fill="white"/>
<path d="M195.033 12.3514H195.788C196.57 12.2972 197.336 12.1047 198.051 11.7828C198.673 11.4937 199.182 11.0047 199.497 10.393C199.848 9.71055 200.021 8.94981 200 8.18191C200.003 7.49015 199.875 6.80418 199.623 6.16035C199.417 5.64962 199.068 5.21043 198.617 4.89688C198.136 4.57643 197.605 4.34137 197.045 4.20197C196.362 4.05566 195.668 3.97109 194.97 3.94928H182.899V16.0154H186.483V12.4777H191.072L195.41 16.0154H199.931L195.97 12.8567L195.033 12.3514ZM186.546 9.82442V7.04478H194.656C195.119 6.99737 195.584 7.10869 195.976 7.36065C196.128 7.50399 196.242 7.68293 196.308 7.8814C196.373 8.07988 196.389 8.29167 196.353 8.49777C196.368 8.69328 196.342 8.88969 196.277 9.07456C196.212 9.25944 196.11 9.42874 195.976 9.57172C195.59 9.83798 195.12 9.95056 194.656 9.88759L186.546 9.82442Z" fill="white"/>
<path d="M143.542 9.88756C143.529 9.06603 143.679 8.25017 143.982 7.48696C144.226 6.75455 144.66 6.10055 145.239 5.59176C145.806 5.03831 146.496 4.62708 147.251 4.39146C148.121 4.09123 149.035 3.9417 149.954 3.94925H160.951V7.10792H150.325C149.461 7.03668 148.603 7.30885 147.936 7.86601C147.651 8.15479 147.431 8.50146 147.29 8.88278C147.149 9.26411 147.091 9.6713 147.119 10.0771C147.091 10.4829 147.149 10.89 147.29 11.2714C147.431 11.6527 147.651 11.9994 147.936 12.2882C148.603 12.8453 149.461 13.1175 150.325 13.0462H160.951V16.2049H149.948C149.028 16.2175 148.113 16.0679 147.245 15.7627C146.504 15.5111 145.82 15.1138 145.233 14.594C144.667 14.0736 144.236 13.4233 143.975 12.6988C143.702 11.9272 143.554 11.1168 143.535 10.2982L143.542 9.88756Z" fill="white"/>
<path d="M23.2058 2.59107L25.0919 5.18119C25.356 3.65613 25.524 2.11585 25.5949 0.569519L23.2058 2.59107Z" fill="white"/>
<path d="M8.934 12.8883C10.7064 12.6469 12.4902 12.4993 14.2781 12.4461C16.478 12.3409 18.682 12.362 20.8796 12.5093L23.8345 10.4246C21.5167 10.1723 19.1871 10.0458 16.8558 10.0455C12.9949 10.0239 9.14121 10.3836 5.35033 11.1195L3.96716 13.7096C4.15578 13.6464 6.04192 13.2674 8.934 12.8883Z" fill="white"/>
<path d="M31.3162 4.17038L33.5167 2.65422C33.4538 2.65422 33.2024 2.52787 32.8251 2.40152C31.7535 2.01896 30.6596 1.70251 29.5495 1.45392L31.3162 4.17038Z" fill="white"/>
<path d="M22.4513 14.973L20.8796 12.5093C18.6791 12.3829 16.4786 12.3829 14.2781 12.4461C12.4548 12.5093 10.6944 12.6988 8.934 12.8883C7.26386 13.0645 5.60542 13.3387 3.96716 13.7096L6.7335 15.5416C10.0787 14.9834 13.4648 14.7086 16.8558 14.7203C18.7241 14.7071 20.5918 14.7914 22.4513 14.973Z" fill="white"/>
<path d="M16.4786 2.33838C14.2297 2.3578 11.9836 2.50544 9.75135 2.78059C7.20472 3.04861 4.68241 3.51326 2.20679 4.17041L4.401 5.8761C8.43036 5.01212 12.5409 4.5885 16.6609 4.61263C19.5204 4.61324 22.3768 4.80317 25.2114 5.18119L23.3253 2.59107C21.0053 2.40155 18.7419 2.33838 16.4786 2.33838Z" fill="white"/>
<path d="M31.3162 4.1704C31.2653 7.91149 30.4746 11.6051 28.99 15.0363C27.6755 18.1976 25.9868 21.1883 23.9603 23.9437C22.4408 26.0917 20.7592 28.1193 18.9305 30.0084C17.6102 31.3982 16.73 32.2195 16.6672 32.2826V34.9359C17.3588 34.3674 33.5167 22.0485 33.5167 2.59106L31.3162 4.1704Z" fill="white"/>
<path d="M16.73 32.2826L14.4603 30.0084C12.6316 28.1193 10.9501 26.0917 9.43062 23.9437C7.43635 21.1559 5.76966 18.1457 4.46379 14.9731C4.27518 14.5309 4.14943 14.1518 3.96082 13.7096C2.82092 10.6565 2.20649 7.43069 2.14384 4.1704L-7.54413e-05 2.59106C-0.377303 21.6695 16.2207 34.3674 16.7237 34.8096L16.73 32.2826Z" fill="white"/>
<path d="M16.73 29.9452V32.2826C16.8558 32.1563 17.736 31.3982 18.9934 30.0715C20.8041 28.1662 22.4845 26.14 24.0231 24.0069C26.0503 21.2293 27.7389 18.2176 29.0528 15.0362C30.5144 11.5976 31.3041 7.90869 31.3791 4.17038L29.5495 1.39075C29.4888 3.21287 29.2997 5.02839 28.9837 6.82367C28.8579 7.77128 28.6693 8.59253 28.4807 9.41379C28.3852 9.92629 28.2592 10.4326 28.1035 10.93V11.0563C27.9149 11.688 27.7262 12.4461 27.4119 13.2674C27.0347 14.3413 26.7832 15.0362 26.6574 15.4784C23.2058 24.3859 17.1701 29.9452 16.73 29.9452Z" fill="white"/>
<path d="M9.49984 23.9437C11.0193 26.0917 12.7009 28.1193 14.5295 30.0084C15.787 31.335 16.73 32.1563 16.7929 32.2194V29.9452C16.3528 29.9452 10.5058 24.5754 6.79637 15.5416L3.96716 13.7096C4.09653 14.1451 4.26487 14.568 4.47013 14.9731C5.79799 18.1476 7.4857 21.1577 9.49984 23.9437Z" fill="white"/>
<path d="M5.41323 11.1195C4.87081 9.41528 4.51247 7.65736 4.34441 5.8761L2.20679 4.17041C2.25009 7.42753 2.84541 10.6534 3.96718 13.7096L5.41323 11.1195Z" fill="white"/>
<path d="M20.8796 12.5093L22.4514 14.9731C23.0164 13.4854 23.4971 11.9668 23.8911 10.4246L20.8796 12.5093Z" fill="white"/>
<path d="M2.14391 4.17038C4.6127 3.48292 7.13754 3.0178 9.68847 2.78056C11.9221 2.52836 14.168 2.40181 16.4157 2.40152H17.1702C20.691 2.40152 23.0801 2.65422 23.1429 2.65422L25.5321 0.695836C22.6178 0.265567 19.6756 0.0544028 16.7301 0.0641012C10.1914 0.0641012 4.03005 1.13805 0.0691585 2.65422L0 2.71739L2.14391 4.17038Z" fill="white"/>
<path d="M44.7141 26.8687C44.7053 27.2583 44.7693 27.6461 44.9027 28.0121C45.0266 28.3357 45.2459 28.6134 45.5314 28.8081C45.914 29.0519 46.3417 29.2152 46.7888 29.2882C47.4535 29.3996 48.1269 29.4504 48.8007 29.4398C49.4308 29.4401 50.0604 29.4063 50.6869 29.3388C51.3156 29.2693 51.9443 29.1871 52.5038 29.0861L54.0568 28.8081L54.4591 30.3874C53.9185 30.5201 53.3275 30.6338 52.6925 30.7412C52.0575 30.8486 51.435 30.9244 50.7372 30.9876C50.0393 31.0508 49.4106 31.076 48.763 31.076C47.8443 31.0913 46.9269 31.0023 46.0281 30.8107C45.364 30.6762 44.7347 30.4052 44.1797 30.0147C43.7153 29.6818 43.3536 29.2243 43.136 28.6944C42.6831 27.5067 42.6831 26.1927 43.136 25.005C43.3574 24.4757 43.7183 24.0171 44.1797 23.6784C44.7347 23.2879 45.364 23.0169 46.0281 22.8824C46.9269 22.6909 47.8443 22.6019 48.763 22.6171C49.3917 22.6171 50.0707 22.6171 50.7372 22.7055C51.4036 22.794 52.0575 22.8508 52.6925 22.9519C53.3275 23.053 53.9499 23.1793 54.4591 23.312L54.1008 24.9103C53.6418 24.8155 53.1263 24.7208 52.5479 24.6197C51.9694 24.5186 51.3659 24.4428 50.7309 24.3733C50.0959 24.3038 49.4734 24.2722 48.8447 24.2722C48.1707 24.2634 47.4973 24.3163 46.8328 24.4302C46.3862 24.5012 45.9585 24.6624 45.5754 24.904C45.2911 25.1026 45.0722 25.382 44.9467 25.7063C44.795 26.075 44.716 26.4697 44.7141 26.8687Z" fill="white"/>
<path d="M63.5 30.956H61.6139V22.7434H69.6048C70.062 22.7381 70.518 22.7891 70.9629 22.895C71.3348 22.976 71.6845 23.1377 71.9877 23.3688C72.2674 23.5934 72.484 23.8874 72.6164 24.2217C72.7751 24.6234 72.852 25.053 72.8427 25.4851C72.8617 25.9939 72.749 26.4988 72.5158 26.9508C72.2951 27.344 71.9592 27.6594 71.5539 27.8541C71.0617 28.0795 70.5291 28.202 69.9884 28.2142H69.2591L69.9506 28.6691L72.7233 30.9054H70.2964L67.1529 28.309H63.5V30.956ZM63.5 24.4049V26.9318H69.4037C69.799 26.9684 70.1946 26.8657 70.5228 26.6412C70.6461 26.5187 70.7406 26.37 70.7993 26.206C70.8581 26.0421 70.8796 25.867 70.8623 25.6936C70.8808 25.5154 70.86 25.3352 70.8013 25.1659C70.7426 24.9967 70.6475 24.8425 70.5228 24.7144C70.1925 24.4951 69.798 24.3948 69.4037 24.4301L63.5 24.4049Z" fill="white"/>
<path d="M84.3796 27.8099L78.8658 22.756H81.3303L85.3604 26.3506L89.3779 22.756H91.7921L86.2783 27.8099V30.9686H84.3922L84.3796 27.8099Z" fill="white"/>
<path d="M98.5697 30.956V22.7434H106.617C107.072 22.7385 107.526 22.7895 107.969 22.895C108.345 22.9748 108.699 23.1366 109.006 23.3688C109.287 23.5928 109.503 23.8869 109.635 24.2217C109.815 24.7098 109.892 25.2298 109.863 25.7493C109.834 26.2688 109.698 26.7767 109.465 27.2414C109.201 27.6741 108.804 28.0089 108.334 28.1953C107.781 28.41 107.191 28.5131 106.598 28.4985H100.468V30.956H98.5697ZM106.429 24.4049H100.487V26.856H106.429C106.82 26.8883 107.211 26.7907 107.541 26.5781C107.67 26.4587 107.769 26.311 107.831 26.1466C107.894 25.9822 107.917 25.8055 107.9 25.6305C107.919 25.4553 107.896 25.2782 107.834 25.1135C107.771 24.9488 107.671 24.8013 107.541 24.6829C107.21 24.4732 106.82 24.3758 106.429 24.4049Z" fill="white"/>
<path d="M121.423 24.4048H116.545V22.7623H128.214V24.4048H123.347V30.9559H121.423V24.4048Z" fill="white"/>
<path d="M141.385 31.1139C140.131 31.1469 138.879 30.9937 137.669 30.659C136.823 30.44 136.069 29.9526 135.519 29.2692C135.036 28.5607 134.793 27.7143 134.828 26.856C134.791 25.9975 135.034 25.1505 135.519 24.4428C136.07 23.7613 136.824 23.2744 137.669 23.0529C140.111 22.4561 142.659 22.4561 145.101 23.0529C145.943 23.2744 146.692 23.7616 147.238 24.4428C147.728 25.1483 147.974 25.9964 147.936 26.856C147.971 27.7153 147.726 28.5626 147.238 29.2692C146.694 29.9524 145.944 30.44 145.101 30.659C143.891 30.9941 142.639 31.1474 141.385 31.1139ZM141.385 29.4524C142.119 29.4628 142.853 29.412 143.579 29.3008C144.077 29.2348 144.558 29.0785 145 28.8396C145.33 28.6553 145.597 28.3758 145.767 28.0373C146.077 27.2806 146.077 26.4314 145.767 25.6746C145.597 25.3361 145.33 25.0566 145 24.8723C144.559 24.6311 144.077 24.4727 143.579 24.4048C142.852 24.3017 142.119 24.2553 141.385 24.2659C140.456 24.2428 139.527 24.3297 138.619 24.5249C138.055 24.6312 137.545 24.9276 137.173 25.3651C136.893 25.8128 136.745 26.3306 136.745 26.8591C136.745 27.3877 136.893 27.9055 137.173 28.3532C137.546 28.7883 138.056 29.0824 138.619 29.1871C139.527 29.3879 140.456 29.477 141.385 29.4524Z" fill="white"/>
</g>
<defs>
<clipPath id="clip0_202_675">
<rect width="200" height="34.8718" fill="white" transform="translate(0 0.0640869)"/>
</clipPath>
</defs>
</svg>
