<svg width="50" height="51" viewBox="0 0 50 51" fill="none" xmlns="http://www.w3.org/2000/svg">
<path fill-rule="evenodd" clip-rule="evenodd" d="M25 3C37.4265 3 47.5 13.0735 47.5 25.5C47.5 37.9265 37.4265 48 25 48C12.5735 48 2.5 37.9265 2.5 25.5C2.5 13.0735 12.5735 3 25 3ZM18.3909 17.0081C23.0811 17.0081 26.8828 20.8107 26.8828 25.5C26.8828 30.1893 23.0811 33.9919 18.3909 33.9919C13.7016 33.9919 9.8999 30.1893 9.8999 25.5C9.8999 20.8107 13.7016 17.0081 18.3909 17.0081ZM31.9781 17.6792C34.3514 17.6792 36.2747 21.1805 36.2747 25.5C36.2747 29.8195 34.3514 33.3208 31.9781 33.3208C29.6048 33.3208 27.6815 29.8195 27.6815 25.5C27.6815 21.1805 29.6048 17.6792 31.9781 17.6792ZM38.6039 18.3493C39.4299 18.3493 40.1001 21.5504 40.1001 25.5C40.1001 29.4496 39.4299 32.6507 38.6039 32.6507C37.777 32.6507 37.1069 29.4496 37.1069 25.5C37.1069 21.5504 37.777 18.3493 38.6039 18.3493Z" fill="white"/>
</svg>
