<svg width="305" height="330" viewBox="0 0 305 330" fill="none" xmlns="http://www.w3.org/2000/svg">
<path fill-rule="evenodd" clip-rule="evenodd" d="M20.3333 0C9.10355 0 0 9.84973 0 22V308C0 320.15 9.10354 330 20.3333 330H284.667C295.896 330 305 320.15 305 308V22C305 9.84974 295.896 0 284.667 0H20.3333ZM23.1061 15C18.0016 15 13.8636 19.4772 13.8636 25V240C13.8636 251.046 22.818 260 33.8637 260H141.052C147.991 260 154.433 263.596 158.075 269.502L180.275 305.498C183.917 311.404 190.36 315 197.298 315H281.894C286.998 315 291.136 310.523 291.136 305V83C291.136 71.9543 282.182 63 271.136 63H189.243C182.097 63 175.495 59.1881 171.922 53.0001L155.756 24.9999C152.183 18.8119 145.581 15 138.436 15H23.1061Z" fill="#23252D"/>
</svg>
