<svg width="50" height="51" viewBox="0 0 50 51" fill="none" xmlns="http://www.w3.org/2000/svg">
<path d="M40.145 8.11386C40.145 8.11386 44.1922 6.53573 43.8549 10.3683C43.7425 11.9465 42.7308 17.4699 41.9438 23.4443L39.2457 41.1419C39.2457 41.1419 39.0209 43.7345 36.9972 44.1854C34.9736 44.6363 31.9383 42.6073 31.3761 42.1564C30.9264 41.8182 22.9445 36.7456 20.1339 34.2657C19.3469 33.5894 18.4475 32.2367 20.2463 30.6586L32.0507 19.3863C33.3997 18.0336 34.7488 14.8773 29.1276 18.7099L13.3886 29.4187C13.3886 29.4187 11.5898 30.5458 8.21723 29.5314L0.909753 27.2769C0.909753 27.2769 -1.78838 25.5861 2.82093 23.8951C14.0632 18.5971 27.8911 13.1864 40.145 8.11386Z" fill="white"/>
</svg>
