<svg width="50" height="51" viewBox="0 0 50 51" fill="none" xmlns="http://www.w3.org/2000/svg">
<g clip-path="url(#clip0_543_253)">
<path d="M50.0624 10.9375C48.2148 11.7578 46.2343 12.3086 44.1523 12.5586C46.2773 11.2852 47.9101 9.26953 48.6757 6.87109C46.6913 8.04688 44.4843 8.90234 42.1445 9.36328C40.2695 7.36328 37.5976 6.11719 34.6406 6.11719C28.9609 6.11719 24.3554 10.7188 24.3554 16.3984C24.3554 17.2031 24.4492 17.9883 24.6249 18.7422C16.0781 18.3125 8.50385 14.2188 3.42963 7.99609C2.54291 9.51953 2.039 11.2852 2.039 13.168C2.039 16.7344 3.8515 19.8828 6.61322 21.7305C4.92572 21.6758 3.33978 21.2109 1.95306 20.4414C1.95306 20.4844 1.95306 20.5273 1.95306 20.5703C1.95306 25.5547 5.49994 29.707 10.1992 30.6563C9.33978 30.8906 8.42963 31.0156 7.49213 31.0156C6.82806 31.0156 6.18353 30.9531 5.55463 30.8281C6.86713 34.9102 10.664 37.8906 15.1601 37.9727C11.6445 40.7305 7.21088 42.3711 2.39056 42.3711C1.55853 42.3711 0.742127 42.3242 -0.0586548 42.2266C4.48822 45.1484 9.89447 46.8477 15.7031 46.8477C34.6171 46.8477 44.9609 31.1797 44.9609 17.5938C44.9609 17.1484 44.9492 16.6992 44.9335 16.2617C46.9413 14.8125 48.6835 13 50.0624 10.9375Z" fill="white"/>
</g>
<defs>
<clipPath id="clip0_543_253">
<rect width="50" height="50" fill="white" transform="translate(-6.10352e-05 0.5)"/>
</clipPath>
</defs>
</svg>
